<svg width="85" height="41" viewBox="0 0 85 41" fill="none" xmlns="http://www.w3.org/2000/svg">
<path d="M13.1462 12.5376H13.1433C10.7453 12.5376 8.80127 14.2652 8.80127 16.3963V16.3988C8.80127 18.5299 10.7453 20.2575 13.1433 20.2575H13.1462C15.5442 20.2575 17.4882 18.5299 17.4882 16.3988V16.3963C17.4882 14.2652 15.5442 12.5376 13.1462 12.5376Z" fill="#2196F3"/>
<path d="M45.195 11.3041C45.1882 8.34411 43.8623 5.50704 41.5074 3.41377C39.1525 1.32049 35.9604 0.141487 32.6297 0.134766V0.134766C29.298 0.140143 26.1045 1.31855 23.7484 3.41197C21.3922 5.50539 20.0655 8.34323 20.0587 11.3041V27.627C20.0587 27.627 45.1922 25.1392 45.195 11.3066V11.3041Z" fill="#2196F3"/>
<path d="M0 32.9843C0.00604098 35.0439 0.929149 37.0176 2.56761 38.4742C4.20607 39.9308 6.42668 40.7518 8.74418 40.7579C11.0612 40.7518 13.2814 39.9312 14.9197 38.4751C16.5581 37.0191 17.4816 35.046 17.4884 32.9868V21.6292C17.4884 21.6292 0 23.3614 0 32.9843ZM8.74418 35.0193C8.2913 35.0193 7.84859 34.8999 7.47203 34.6763C7.09548 34.4527 6.80199 34.1349 6.62868 33.763C6.45537 33.3912 6.41002 32.982 6.49838 32.5873C6.58673 32.1925 6.80481 31.8299 7.12505 31.5453C7.44528 31.2607 7.85328 31.0669 8.29746 30.9884C8.74164 30.9099 9.20204 30.9502 9.62045 31.1042C10.0389 31.2582 10.3965 31.5191 10.6481 31.8537C10.8997 32.1884 11.034 32.5818 11.034 32.9843C11.0351 33.2522 10.9767 33.5176 10.8622 33.7654C10.7476 34.0132 10.5791 34.2384 10.3664 34.4282C10.1536 34.6179 9.90081 34.7685 9.62244 34.8713C9.34406 34.974 9.04561 35.0269 8.74418 35.0269V35.0193Z" fill="#2196F3"/>
<path d="M26.4177 33.8986H24.7302V35.6417H23.8513V31.3761H26.6286V32.088H24.7302V33.1896H26.4177V33.8986ZM30.6423 33.6056C30.6423 34.0255 30.5681 34.3937 30.4196 34.7101C30.2712 35.0265 30.0583 35.2706 29.7809 35.4425C29.5056 35.6144 29.1891 35.7003 28.8317 35.7003C28.4782 35.7003 28.1628 35.6154 27.8854 35.4454C27.6081 35.2755 27.3932 35.0333 27.2409 34.7189C27.0886 34.4025 27.0114 34.0392 27.0095 33.629V33.4181C27.0095 32.9982 27.0847 32.629 27.235 32.3107C27.3874 31.9904 27.6013 31.7452 27.8766 31.5753C28.154 31.4034 28.4704 31.3175 28.8259 31.3175C29.1813 31.3175 29.4968 31.4034 29.7722 31.5753C30.0495 31.7452 30.2634 31.9904 30.4138 32.3107C30.5661 32.629 30.6423 32.9972 30.6423 33.4152V33.6056ZM29.7516 33.4122C29.7516 32.965 29.6716 32.6251 29.5114 32.3927C29.3513 32.1603 29.1227 32.0441 28.8259 32.0441C28.5309 32.0441 28.3034 32.1593 28.1432 32.3898C27.9831 32.6183 27.902 32.9542 27.9001 33.3976V33.6056C27.9001 34.0411 27.9802 34.379 28.1403 34.6193C28.3005 34.8595 28.5309 34.9796 28.8317 34.9796C29.1266 34.9796 29.3532 34.8644 29.5114 34.6339C29.6696 34.4015 29.7497 34.0636 29.7516 33.6202V33.4122ZM33.4929 34.5226C33.4929 34.3566 33.4343 34.2296 33.3171 34.1417C33.1999 34.0519 32.989 33.9581 32.6843 33.8605C32.3796 33.7609 32.1384 33.6632 31.9606 33.5675C31.4763 33.3058 31.2341 32.9532 31.2341 32.5099C31.2341 32.2794 31.2985 32.0743 31.4274 31.8947C31.5583 31.713 31.7448 31.5714 31.987 31.4698C32.2311 31.3683 32.5046 31.3175 32.8073 31.3175C33.112 31.3175 33.3835 31.3732 33.6218 31.4845C33.86 31.5939 34.0446 31.7491 34.1755 31.9503C34.3083 32.1515 34.3747 32.38 34.3747 32.6359H33.4958C33.4958 32.4406 33.4343 32.2892 33.3112 32.1818C33.1882 32.0724 33.0153 32.0177 32.7927 32.0177C32.5778 32.0177 32.4108 32.0636 32.2917 32.1554C32.1725 32.2452 32.113 32.3644 32.113 32.5128C32.113 32.6515 32.1823 32.7677 32.321 32.8615C32.4616 32.9552 32.6677 33.0431 32.9391 33.1251C33.4391 33.2755 33.8034 33.462 34.0319 33.6847C34.2604 33.9073 34.3747 34.1847 34.3747 34.5167C34.3747 34.8859 34.235 35.1759 33.9557 35.3868C33.6765 35.5958 33.3005 35.7003 32.8278 35.7003C32.4997 35.7003 32.2009 35.6407 31.9313 35.5216C31.6618 35.4005 31.4557 35.2355 31.3132 35.0265C31.1725 34.8175 31.1022 34.5753 31.1022 34.2999H31.9841C31.9841 34.7706 32.2653 35.006 32.8278 35.006C33.0368 35.006 33.1999 34.964 33.3171 34.88C33.4343 34.7941 33.4929 34.6749 33.4929 34.5226ZM38.1833 32.088H36.8766V35.6417H35.9977V32.088H34.7087V31.3761H38.1833V32.088ZM41.2536 33.7931H39.5661V34.9357H41.5466V35.6417H38.6872V31.3761H41.5407V32.088H39.5661V33.1046H41.2536V33.7931ZM43.6413 34.0802H42.9411V35.6417H42.0622V31.3761H43.6472C44.1511 31.3761 44.5397 31.4884 44.8132 31.713C45.0866 31.9376 45.2233 32.255 45.2233 32.6652C45.2233 32.9562 45.1599 33.1993 45.0329 33.3947C44.9079 33.588 44.7175 33.7423 44.4616 33.8575L45.3845 35.6007V35.6417H44.4411L43.6413 34.0802ZM42.9411 33.3683H43.6501C43.8708 33.3683 44.0417 33.3126 44.1628 33.2013C44.2839 33.088 44.3444 32.9327 44.3444 32.7355C44.3444 32.5343 44.2868 32.3761 44.1716 32.2609C44.0583 32.1456 43.8835 32.088 43.6472 32.088H42.9411V33.3683ZM48.2673 34.1388V35.6417H47.3884V31.3761H49.0524C49.3727 31.3761 49.654 31.4347 49.8962 31.5519C50.1403 31.6691 50.3278 31.8361 50.4587 32.0529C50.5895 32.2677 50.655 32.5128 50.655 32.7882C50.655 33.2062 50.5114 33.5363 50.2243 33.7784C49.9391 34.0187 49.5436 34.1388 49.0378 34.1388H48.2673ZM48.2673 33.4269H49.0524C49.2849 33.4269 49.4616 33.3722 49.5827 33.2628C49.7057 33.1534 49.7673 32.9972 49.7673 32.7941C49.7673 32.5851 49.7057 32.4161 49.5827 32.2872C49.4597 32.1583 49.2897 32.0919 49.0729 32.088H48.2673V33.4269ZM53.8278 33.7931H52.1403V34.9357H54.1208V35.6417H51.2614V31.3761H54.1149V32.088H52.1403V33.1046H53.8278V33.7931ZM57.9059 32.088H56.5993V35.6417H55.7204V32.088H54.4313V31.3761H57.9059V32.088ZM60.9763 33.7931H59.2888V34.9357H61.2692V35.6417H58.4099V31.3761H61.2634V32.088H59.2888V33.1046H60.9763V33.7931ZM63.364 34.0802H62.6638V35.6417H61.7849V31.3761H63.3698C63.8737 31.3761 64.2624 31.4884 64.5358 31.713C64.8093 31.9376 64.946 32.255 64.946 32.6652C64.946 32.9562 64.8825 33.1993 64.7556 33.3947C64.6306 33.588 64.4401 33.7423 64.1843 33.8575L65.1071 35.6007V35.6417H64.1638L63.364 34.0802ZM62.6638 33.3683H63.3727C63.5934 33.3683 63.7643 33.3126 63.8854 33.2013C64.0065 33.088 64.0671 32.9327 64.0671 32.7355C64.0671 32.5343 64.0095 32.3761 63.8942 32.2609C63.7809 32.1456 63.6061 32.088 63.3698 32.088H62.6638V33.3683ZM67.8288 34.5226C67.8288 34.3566 67.7702 34.2296 67.653 34.1417C67.5358 34.0519 67.3249 33.9581 67.0202 33.8605C66.7155 33.7609 66.4743 33.6632 66.2966 33.5675C65.8122 33.3058 65.57 32.9532 65.57 32.5099C65.57 32.2794 65.6345 32.0743 65.7634 31.8947C65.8942 31.713 66.0807 31.5714 66.3229 31.4698C66.5671 31.3683 66.8405 31.3175 67.1432 31.3175C67.4479 31.3175 67.7194 31.3732 67.9577 31.4845C68.196 31.5939 68.3806 31.7491 68.5114 31.9503C68.6442 32.1515 68.7106 32.38 68.7106 32.6359H67.8317C67.8317 32.4406 67.7702 32.2892 67.6472 32.1818C67.5241 32.0724 67.3513 32.0177 67.1286 32.0177C66.9138 32.0177 66.7468 32.0636 66.6276 32.1554C66.5085 32.2452 66.4489 32.3644 66.4489 32.5128C66.4489 32.6515 66.5182 32.7677 66.6569 32.8615C66.7975 32.9552 67.0036 33.0431 67.2751 33.1251C67.7751 33.2755 68.1393 33.462 68.3679 33.6847C68.5964 33.9073 68.7106 34.1847 68.7106 34.5167C68.7106 34.8859 68.571 35.1759 68.2917 35.3868C68.0124 35.5958 67.6364 35.7003 67.1638 35.7003C66.8356 35.7003 66.5368 35.6407 66.2673 35.5216C65.9977 35.4005 65.7917 35.2355 65.6491 35.0265C65.5085 34.8175 65.4382 34.5753 65.4382 34.2999H66.32C66.32 34.7706 66.6013 35.006 67.1638 35.006C67.3727 35.006 67.5358 34.964 67.653 34.88C67.7702 34.7941 67.8288 34.6749 67.8288 34.5226Z" fill="#2196F3"/>
</svg>
