<svg aria-hidden="true" style="position: absolute; width: 0; height: 0; overflow: hidden;" version="1.1" xmlns="http://www.w3.org/2000/svg" xmlns:xlink="http://www.w3.org/1999/xlink">
<defs>
<symbol id="icon-antenna" viewBox="0 0 72 32">
<path d="M1.067 0.133h69.867c0.515 0 0.933 0.418 0.933 0.933v29.867c0 0.515-0.418 0.933-0.933 0.933h-69.867c-0.515 0-0.933-0.418-0.933-0.933v-29.867c0-0.515 0.418-0.933 0.933-0.933z"></path>
<path d="M44.618 19.557l-4.925-4.961 0.547-2.692c0.141 0.055 0.291 0.084 0.442 0.085h0.004c0.695 0.008 1.266-0.549 1.274-1.244s-0.549-1.266-1.245-1.274c-0.695-0.008-1.266 0.549-1.274 1.244-0.002 0.149 0.023 0.297 0.073 0.437l-2.893 0.353-4.719-4.744c-0.058-0.059-0.137-0.093-0.22-0.093-0.082 0-0.16 0.033-0.218 0.091l-0.882 0.877c-0.122 0.122-0.122 0.318 0 0.44l0.475 0.482c-1.839 3.382-1.242 7.57 1.47 10.303 0.025 0.024 0.054 0.043 0.085 0.057-0.020 0.105-0.030 0.212-0.030 0.319v3.609h-3.733c-0.859 0.001-1.555 0.697-1.556 1.556v0.622c0 0.172 0.139 0.311 0.311 0.311h14.311c0.172 0 0.311-0.139 0.311-0.311v-0.622c-0.001-0.859-0.697-1.555-1.555-1.556h-3.733v-1.599c0.585 0.123 1.181 0.185 1.778 0.187 1.434-0.002 2.845-0.359 4.107-1.040l0.477 0.48c0.058 0.059 0.137 0.093 0.22 0.093 0.082-0 0.16-0.033 0.218-0.091l0.882-0.877c0.122-0.122 0.122-0.318 0-0.44zM40.247 10.303c0.243-0.242 0.638-0.241 0.88 0.002s0.241 0.638-0.002 0.88c-0.117 0.116-0.274 0.181-0.439 0.181h-0.002c-0.343-0.002-0.621-0.282-0.619-0.625 0.001-0.165 0.067-0.322 0.183-0.438h-0.001zM39.514 12.347l-0.349 1.718-0.686-0.69 1.035-1.029zM39.161 11.821l-1.12 1.113-0.866-0.871 1.986-0.242zM40.669 23.467c0.515 0 0.933 0.418 0.933 0.933v0.311h-13.689v-0.311c0-0.515 0.418-0.933 0.933-0.933h11.822zM36.314 22.222v0.622h-3.111v-0.622h3.111zM33.202 21.6v-2.364c0-0.755 0.698-1.369 1.555-1.369s1.556 0.614 1.556 1.369v2.364h-3.111zM36.936 20.611v-1.375c0-1.098-0.977-1.991-2.178-1.991-0.776-0.012-1.502 0.383-1.914 1.042-2.367-2.493-2.9-6.21-1.329-9.268l10.851 10.913c-1.675 0.852-3.596 1.092-5.43 0.679zM43.521 20.212l-12.283-12.355 0.44-0.439 4.629 4.655c0.002 0 0.003 0.004 0.006 0.006l7.65 7.695-0.441 0.439z"></path>
<path d="M34.761 18.489h-0.003c-0.515-0.001-0.934 0.416-0.935 0.932s0.417 0.934 0.932 0.935h0.003c0.515 0.001 0.934-0.416 0.935-0.932s-0.417-0.934-0.932-0.935zM34.978 19.643c-0.058 0.058-0.138 0.091-0.221 0.091-0.172-0.001-0.31-0.141-0.309-0.313 0-0.082 0.033-0.161 0.092-0.219s0.136-0.090 0.218-0.091c0.172 0.001 0.31 0.141 0.31 0.313-0.001 0.082-0.033 0.161-0.092 0.219h0.003z"></path>
</symbol>
<symbol id="icon-astronaut" viewBox="0 0 72 32">
<path d="M1.067 0h69.867c0.589 0 1.067 0.478 1.067 1.067v29.867c0 0.589-0.478 1.067-1.067 1.067h-69.867c-0.589 0-1.067-0.478-1.067-1.067v-29.867c0-0.589 0.478-1.067 1.067-1.067z"></path>
<path d="M45.318 9.306c-0.037-0.112-0.134-0.194-0.251-0.212l-1.114-0.162-0.499-1.010c-0.105-0.213-0.453-0.213-0.558 0l-0.499 1.010-1.115 0.162c-0.117 0.017-0.214 0.099-0.251 0.212s-0.006 0.236 0.079 0.319l0.807 0.786-0.19 1.11c-0.020 0.117 0.028 0.235 0.123 0.304 0.097 0.070 0.223 0.079 0.328 0.024l0.997-0.524 0.997 0.524c0.046 0.024 0.095 0.036 0.145 0.036 0.064 0 0.129-0.020 0.183-0.059 0.096-0.070 0.144-0.188 0.123-0.304l-0.19-1.11 0.807-0.786c0.085-0.083 0.115-0.206 0.079-0.319zM43.882 10.080c-0.073 0.071-0.107 0.175-0.089 0.275l0.111 0.65-0.583-0.307c-0.045-0.024-0.095-0.036-0.145-0.036s-0.099 0.012-0.145 0.036l-0.583 0.307 0.111-0.65c0.018-0.101-0.016-0.204-0.089-0.275l-0.473-0.46 0.653-0.095c0.101-0.015 0.189-0.078 0.234-0.17l0.292-0.591 0.292 0.591c0.046 0.092 0.133 0.156 0.234 0.17l0.653 0.095-0.472 0.46z"></path>
<path d="M41.911 18.638h-0.622v0.622h0.622v-0.622z"></path>
<path d="M41.911 19.882h-0.622v0.622h0.622v-0.622z"></path>
<path d="M42.533 19.26h-0.622v0.622h0.622v-0.622z"></path>
<path d="M41.289 19.26h-0.622v0.622h0.622v-0.622z"></path>
<path d="M39.733 22.060h-0.622v0.622h0.622v-0.622z"></path>
<path d="M39.733 23.305h-0.622v0.622h0.622v-0.622z"></path>
<path d="M40.356 22.682h-0.622v0.622h0.622v-0.622z"></path>
<path d="M39.111 22.682h-0.622v0.622h0.622v-0.622z"></path>
<path d="M36 20.816h-0.622v0.622h0.622v-0.622z"></path>
<path d="M36 22.060h-0.622v0.622h0.622v-0.622z"></path>
<path d="M36.622 21.438h-0.622v0.622h0.622v-0.622z"></path>
<path d="M35.378 21.438h-0.622v0.622h0.622v-0.622z"></path>
<path d="M30.089 10.238h-0.622v0.622h0.622v-0.622z"></path>
<path d="M30.089 11.482h-0.622v0.622h0.622v-0.622z"></path>
<path d="M30.711 10.86h-0.622v0.622h0.622v-0.622z"></path>
<path d="M29.467 10.86h-0.622v0.622h0.622v-0.622z"></path>
<path d="M41.084 14.926c-0.168-0.226-0.414-0.372-0.693-0.411-0.281-0.040-0.558 0.034-0.782 0.205l-0.73 0.56-1.107 0.827-0.792-0.316c1.413-0.634 2.4-2.046 2.4-3.687 0-2.23-1.822-4.044-4.061-4.044s-4.061 1.814-4.061 4.044c0 0.808 0.242 1.56 0.653 2.192l-1.612-0.014c-0.001 0-0.002 0-0.003 0-0.005 0-0.009 0.002-0.014 0.003-0.031 0.001-0.061 0.007-0.091 0.018-0.007 0.003-0.015 0.004-0.022 0.008-0.004 0.002-0.007 0.002-0.011 0.004l-1.886 0.931c-0 0-0.001 0-0.001 0l-1.104 0.531c-0.012 0.005-0.025 0.012-0.037 0.021-0.44 0.293-0.59 0.869-0.349 1.339 0.129 0.25 0.347 0.434 0.616 0.519 0.104 0.032 0.209 0.048 0.315 0.048 0.169 0 0.336-0.041 0.49-0.123l0.81-0.431 1.321-0.682 0.791-0.005-3.174 3.159c-0 0-0.001 0-0.001 0.001l-0.781 0.778c-0.184 0.184-0.286 0.427-0.286 0.687s0.102 0.504 0.286 0.688c0.19 0.189 0.439 0.283 0.688 0.283s0.498-0.095 0.689-0.283l0.767-0.764 1.015-0.758 0.525 0.523-1.027 1.023c-0.001 0-0.001 0-0.001 0.001l-0.781 0.778c-0.185 0.184-0.286 0.427-0.286 0.687s0.102 0.504 0.286 0.688c0.189 0.189 0.439 0.283 0.688 0.283s0.499-0.095 0.689-0.283l2.031-2.022c0-0 0-0.001 0.001-0.001l0.589-0.583-0.002-0.002c0.004-0.004 0.009-0.005 0.013-0.009l3.013-3.301 2.025 0.288c0.015 0.002 0.029 0.003 0.044 0.003 0.038 0 0.074-0.009 0.109-0.022 0.010-0.004 0.019-0.009 0.029-0.014 0.011-0.006 0.023-0.009 0.034-0.016l1.874-1.244c0.007-0.005 0.011-0.012 0.017-0.017 0.007-0.006 0.017-0.008 0.024-0.015l0.742-0.695c0.386-0.362 0.439-0.954 0.124-1.378zM27.909 17.033c-0.101 0.054-0.216 0.065-0.326 0.030s-0.197-0.108-0.249-0.209c-0.094-0.183-0.039-0.406 0.125-0.526l0.766-0.369 0.185 0.539 0.077 0.226-0.579 0.308zM29.949 15.966l-0.903 0.467-0.149-0.436-0.107-0.313 1.182-0.584-0.023 0.866zM38.757 12.104c0 0.536-0.128 1.041-0.349 1.493l-2.439-1.108c-0.025-0.334-0.199-0.627-0.46-0.81l0.854-2.835c1.387 0.441 2.394 1.735 2.394 3.26zM31.881 12.104c0-1.887 1.542-3.422 3.438-3.422 0.147 0 0.292 0.012 0.435 0.030l-0.835 2.773c-0.011-0-0.022-0.003-0.033-0.003-0.602 0-1.093 0.488-1.093 1.089s0.49 1.089 1.093 1.089c0.405 0 0.755-0.224 0.944-0.551l2.253 1.024c-0.627 0.844-1.63 1.394-2.763 1.394-1.896 0-3.438-1.535-3.438-3.422zM35.355 12.571c0 0.257-0.211 0.467-0.47 0.467s-0.47-0.209-0.47-0.467 0.211-0.467 0.47-0.467c0.259 0 0.47 0.209 0.47 0.467zM28.105 21.335c-0.138 0.137-0.361 0.136-0.498 0-0.066-0.066-0.103-0.154-0.103-0.247s0.036-0.18 0.103-0.246l0.561-0.559 0.497 0.494-0.559 0.557zM29.979 23.513c-0.138 0.137-0.361 0.137-0.499 0-0.066-0.066-0.103-0.154-0.103-0.247s0.036-0.18 0.103-0.246l0.562-0.559 0.497 0.494-0.56 0.557zM32.010 21.49c-0 0-0.001 0-0.001 0.001l-1.030 1.027-0.497-0.494 1.029-1.024c0 0 0 0 0-0s0.001-0 0.001-0.001c0.023-0.023 0.038-0.051 0.052-0.079 0.004-0.008 0.012-0.015 0.015-0.023 0.010-0.024 0.011-0.050 0.015-0.075 0.002-0.014 0.008-0.028 0.008-0.042 0-0.021-0.007-0.041-0.012-0.062-0.004-0.019-0.004-0.038-0.011-0.056-0.012-0.029-0.032-0.055-0.053-0.080-0.006-0.007-0.008-0.016-0.015-0.022 0 0 0 0-0.001 0s-0-0.001-0.001-0.001l-0.937-0.933c-0.010-0.010-0.023-0.014-0.034-0.022-0.017-0.013-0.032-0.025-0.051-0.034s-0.036-0.014-0.055-0.019c-0.020-0.006-0.039-0.010-0.060-0.012-0.019-0.001-0.037 0.001-0.055 0.003-0.021 0.002-0.041 0.005-0.061 0.012s-0.037 0.016-0.055 0.026c-0.012 0.007-0.025 0.009-0.035 0.017l-1.035 0.772-0.525-0.523 1.399-1.392 2.543 2.502-0.541 0.536zM35.988 17.397c-0.009-0.001-0.017 0.002-0.026 0.002-0.023-0.001-0.044 0-0.067 0.004-0.018 0.003-0.034 0.007-0.051 0.012-0.020 0.007-0.038 0.016-0.056 0.027s-0.033 0.022-0.049 0.036c-0.007 0.006-0.017 0.010-0.023 0.017l-2.741 3.002-2.525-2.483 1.653-1.644c0.122-0.121 0.122-0.318 0.001-0.44-0.061-0.061-0.142-0.091-0.222-0.091v-0l-1.294 0.008 0.016-0.938 1.811 0.016c0.738 0.755 1.767 1.225 2.906 1.225 0.255 0 0.504-0.026 0.746-0.072 0.023 0.019 0.046 0.038 0.075 0.049l1.406 0.56 0.089 0.442 0.104 0.516-1.752-0.249zM38.345 17.5l-0.182-0.909 0.844-0.63 0.552 0.733-1.214 0.806zM40.535 15.849l-0.489 0.458-0.543-0.721 0.485-0.372c0.091-0.070 0.205-0.098 0.317-0.083 0.113 0.016 0.212 0.075 0.28 0.166 0.126 0.17 0.105 0.408-0.050 0.553z"></path>
<path d="M34.601 17.484l-1.25-1.244c-0.121-0.121-0.318-0.121-0.439 0l-1.25 1.244c-0.058 0.059-0.091 0.138-0.091 0.221s0.033 0.162 0.091 0.221l1.25 1.244c0.061 0.060 0.14 0.091 0.219 0.091s0.159-0.030 0.219-0.091l1.25-1.244c0.058-0.058 0.092-0.138 0.092-0.221s-0.033-0.162-0.092-0.221zM33.132 18.51l-0.809-0.805 0.809-0.805 0.809 0.805-0.809 0.805z"></path>
<path d="M36.679 9.625l-0.15 0.604c0.041 0.010 1.014 0.264 1.014 1.254h0.622c0-1.177-0.972-1.73-1.486-1.858z"></path>
<path d="M38.165 12.104h-0.622v0.622h0.622v-0.622z"></path>
</symbol>
<symbol id="icon-clock" viewBox="0 0 72 32">
<path d="M1.067 0h69.867c0.589 0 1.067 0.478 1.067 1.067v29.867c0 0.589-0.478 1.067-1.067 1.067h-69.867c-0.589 0-1.067-0.478-1.067-1.067v-29.867c0-0.589 0.478-1.067 1.067-1.067z"></path>
<path d="M44.923 15.592c-0.001-4.931-3.999-8.927-8.93-8.926s-8.927 3.999-8.926 8.93c0.001 3.884 2.512 7.321 6.212 8.503 0.035 0.011 0.072 0.017 0.109 0.017 0.070-0 0.139-0.019 0.2-0.055 0.079-0.047 0.138-0.121 0.165-0.208l2.255-7.146c0.616-0.003 1.113-0.505 1.11-1.122s-0.505-1.113-1.122-1.11c-0.166 0.001-0.329 0.039-0.478 0.112l-2.978-2.979c-0.148-0.143-0.383-0.139-0.526 0.009-0.139 0.144-0.139 0.373 0 0.517l2.977 2.98c-0.228 0.466-0.098 1.029 0.313 1.347l-2.148 6.809c-4.245-1.564-6.419-6.273-4.855-10.518s6.273-6.419 10.519-4.855c4.245 1.564 6.419 6.273 4.855 10.518-0.764 2.074-2.334 3.752-4.353 4.651l-0.232-1.093c-0.042-0.201-0.24-0.329-0.441-0.287-0.063 0.014-0.122 0.043-0.171 0.086l-2.238 1.998c-0.154 0.137-0.167 0.372-0.031 0.525 0.045 0.050 0.102 0.087 0.165 0.107l2.858 0.912c0.195 0.063 0.405-0.045 0.468-0.24 0.020-0.062 0.023-0.128 0.010-0.191l-0.228-1.073c3.304-1.393 5.449-4.633 5.442-8.219zM35.995 15.22c0.205 0 0.372 0.167 0.372 0.372s-0.167 0.372-0.372 0.372c-0.206 0-0.372-0.166-0.372-0.372s0.166-0.372 0.372-0.372zM37.221 23.891l1.274-1.136 0.352 1.657-1.626-0.52z"></path>
<path d="M35.623 8.525v0.744c0 0.206 0.166 0.372 0.372 0.372s0.372-0.166 0.372-0.372v-0.744c0-0.205-0.167-0.372-0.372-0.372s-0.372 0.167-0.372 0.372z"></path>
<path d="M28.928 15.22c-0.206 0-0.372 0.167-0.372 0.372s0.166 0.372 0.372 0.372h0.744c0.205 0 0.372-0.166 0.372-0.372s-0.167-0.372-0.372-0.372h-0.744z"></path>
<path d="M43.063 15.964c0.205 0 0.372-0.166 0.372-0.372s-0.167-0.372-0.372-0.372h-0.744c-0.205 0-0.372 0.167-0.372 0.372s0.167 0.372 0.372 0.372h0.744z"></path>
</symbol>
<symbol id="icon-diagram" viewBox="0 0 72 32">
<path d="M1.067 0h69.867c0.589 0 1.067 0.478 1.067 1.067v29.867c0 0.589-0.478 1.067-1.067 1.067h-69.867c-0.589 0-1.067-0.478-1.067-1.067v-29.867c0-0.589 0.478-1.067 1.067-1.067z"></path>
<path d="M35.373 15.396h0.622v2.799h-0.622v-2.799z"></path>
<path d="M37.861 16.64h0.622v1.555h-0.622v-1.555z"></path>
<path d="M32.886 17.573h0.622v0.622h-0.622v-0.622z"></path>
<path d="M31.020 17.262h0.622v0.933h-0.622v-0.933z"></path>
<path d="M27.599 23.17h14.926c0.515 0 0.933-0.418 0.933-0.933v-1.244c0-0.515-0.418-0.933-0.933-0.933h-0.311v-7.754l1.766-1.673c0.41 0.202 0.906 0.079 1.174-0.291s0.231-0.88-0.089-1.207-0.829-0.375-1.205-0.115c-0.376 0.26-0.51 0.754-0.317 1.168l-1.331 1.262v-0.717c0-0.515-0.418-0.933-0.933-0.933h-12.438c-0.515 0-0.933 0.418-0.933 0.933v9.328h-0.311c-0.515 0-0.933 0.418-0.933 0.933v1.244c0 0.515 0.418 0.933 0.933 0.933zM44.391 9.488c0.172 0 0.311 0.139 0.311 0.311s-0.139 0.311-0.311 0.311c-0.172 0-0.311-0.139-0.311-0.311s0.139-0.311 0.311-0.311zM28.532 10.732c0-0.172 0.139-0.311 0.311-0.311h12.438c0.172 0 0.311 0.139 0.311 0.311v1.306l-0.622 0.591v-1.275c0-0.172-0.139-0.311-0.311-0.311h-11.194c-0.172 0-0.311 0.139-0.311 0.311v7.774c0 0.172 0.139 0.311 0.311 0.311h11.194c0.171 0 0.311-0.139 0.311-0.311v-5.643l0.622-0.589v7.165h-13.060v-9.328zM31.331 14.774c-0.421-0.001-0.79 0.279-0.902 0.685s0.061 0.836 0.423 1.050c0.362 0.215 0.822 0.161 1.125-0.132l1.081 0.542c0.126 0.063 0.278 0.033 0.371-0.072l2.298-2.585 2.259 1.692c0.121 0.091 0.29 0.081 0.4-0.023l1.963-1.859v4.743h-10.572v-7.152h10.572v1.552l-2.2 2.083-2.278-1.707c-0.129-0.097-0.311-0.079-0.419 0.042l-2.329 2.621-0.871-0.435c0.006-0.037 0.010-0.075 0.012-0.113 0-0.515-0.418-0.933-0.933-0.933zM31.642 15.707c0 0.172-0.139 0.311-0.311 0.311s-0.311-0.139-0.311-0.311c0-0.172 0.139-0.311 0.311-0.311s0.311 0.139 0.311 0.311zM33.507 20.682h3.11v0.311c0 0.172-0.139 0.311-0.311 0.311h-2.488c-0.172 0-0.311-0.139-0.311-0.311v-0.311zM27.289 20.993c0-0.172 0.139-0.311 0.311-0.311h5.286v0.311c0 0.515 0.418 0.933 0.933 0.933h2.488c0.515 0 0.933-0.418 0.933-0.933v-0.311h5.286c0.172 0 0.311 0.139 0.311 0.311v1.244c0 0.172-0.139 0.311-0.311 0.311h-14.926c-0.172 0-0.311-0.139-0.311-0.311v-1.244z"></path>
</symbol>
<symbol id="icon-envelope" viewBox="0 0 43 32">
<path d="M38.667 0h-34.667c-2.206 0-4 1.794-4 4v24c0 2.206 1.794 4 4 4h34.667c2.206 0 4-1.794 4-4v-24c0-2.206-1.794-4-4-4zM38.667 2.667c0.181 0 0.353 0.038 0.511 0.103l-17.844 15.466-17.844-15.466c0.158-0.066 0.33-0.103 0.511-0.103h34.667zM38.667 29.333h-34.667c-0.736 0-1.333-0.598-1.333-1.333v-22.413l17.793 15.421c0.251 0.217 0.563 0.326 0.874 0.326s0.622-0.108 0.874-0.326l17.793-15.421v22.413c0 0.736-0.598 1.333-1.333 1.333z"></path>
</symbol>
<symbol id="icon-facebook" viewBox="0 0 32 32">
<path d="M21.329 5.313h2.921v-5.088c-0.504-0.069-2.237-0.225-4.256-0.225-4.212 0-7.097 2.649-7.097 7.519v4.481h-4.648v5.688h4.648v14.312h5.699v-14.311h4.46l0.708-5.688h-5.169v-3.919c0.001-1.644 0.444-2.769 2.735-2.769z"></path>
</symbol>
<symbol id="icon-group1" viewBox="0 0 27 32">
<path d="M4 0.29l4.672 4.423-8.672-0.005v21.458h22.667v-8.204l4.667 4.418v-22.089h-23.333zM22.462 17.442l-13.247-12.54h13.247v12.54zM18.349 23.027h-14.762v-14.432h1.043v13.455h13.719v0.977zM7.073 29.023l-0.545 1.123-0.545-1.123h-0.457l0.796 1.497v0.872h0.413v-0.872l0.794-1.497h-0.456zM7.758 31.392l0.192-0.552h0.918l0.194 0.552h0.43l-0.897-2.37h-0.369l-0.895 2.37h0.428zM8.409 29.526l0.343 0.983h-0.687l0.343-0.983zM10.58 30.452c-0.060 0.091-0.090 0.192-0.090 0.301 0 0.2 0.070 0.362 0.21 0.487 0.141 0.124 0.329 0.186 0.563 0.186s0.436-0.064 0.605-0.19l0.133 0.158h0.459l-0.348-0.412c0.137-0.187 0.205-0.426 0.205-0.718h-0.343c0 0.159-0.033 0.304-0.099 0.435l-0.457-0.54 0.161-0.117c0.114-0.082 0.196-0.165 0.246-0.247 0.050-0.084 0.075-0.175 0.075-0.273 0-0.15-0.055-0.275-0.166-0.376-0.11-0.102-0.251-0.153-0.423-0.153-0.191 0-0.343 0.054-0.456 0.163s-0.169 0.254-0.169 0.439c0 0.076 0.018 0.155 0.054 0.236 0.037 0.081 0.101 0.18 0.194 0.296-0.176 0.126-0.294 0.235-0.353 0.327zM11.649 30.976c-0.116 0.089-0.241 0.133-0.374 0.133-0.118 0-0.213-0.034-0.283-0.103s-0.106-0.157-0.106-0.267c0-0.127 0.065-0.24 0.195-0.339l0.050-0.036 0.518 0.61zM11.225 29.926c-0.112-0.138-0.168-0.252-0.168-0.343 0-0.079 0.023-0.145 0.068-0.197s0.107-0.078 0.184-0.078c0.072 0 0.131 0.022 0.177 0.067 0.047 0.043 0.070 0.096 0.070 0.158 0 0.093-0.034 0.17-0.101 0.229l-0.050 0.041-0.181 0.124zM15.082 31.213c0.163-0.142 0.256-0.34 0.28-0.592h-0.41c-0.022 0.169-0.073 0.29-0.155 0.363s-0.203 0.109-0.365 0.109c-0.177 0-0.311-0.067-0.404-0.202-0.091-0.135-0.137-0.33-0.137-0.586v-0.21c0.002-0.253 0.051-0.444 0.146-0.575 0.097-0.131 0.234-0.197 0.413-0.197 0.154 0 0.271 0.038 0.35 0.114 0.080 0.075 0.13 0.197 0.15 0.368h0.41c-0.026-0.259-0.119-0.46-0.278-0.602s-0.37-0.213-0.632-0.213c-0.194 0-0.366 0.046-0.514 0.138-0.148 0.092-0.261 0.224-0.34 0.394s-0.119 0.367-0.119 0.591v0.221c0.003 0.218 0.044 0.41 0.122 0.575s0.189 0.292 0.332 0.383c0.144 0.089 0.311 0.133 0.5 0.133 0.27 0 0.487-0.071 0.649-0.212zM17.502 30.881c0.080-0.176 0.12-0.38 0.12-0.612v-0.132c-0.001-0.231-0.042-0.433-0.124-0.607-0.081-0.175-0.197-0.308-0.347-0.4-0.149-0.093-0.32-0.14-0.513-0.14s-0.365 0.047-0.514 0.142c-0.149 0.093-0.264 0.228-0.347 0.405-0.081 0.177-0.122 0.381-0.122 0.612v0.133c0.001 0.227 0.042 0.427 0.124 0.601 0.082 0.174 0.199 0.308 0.348 0.402 0.151 0.093 0.322 0.14 0.514 0.14 0.194 0 0.366-0.047 0.514-0.14 0.15-0.094 0.265-0.229 0.345-0.404zM17.061 29.542c0.1 0.14 0.15 0.341 0.15 0.604v0.124c0 0.267-0.049 0.47-0.148 0.609-0.098 0.139-0.238 0.208-0.42 0.208-0.18 0-0.321-0.071-0.423-0.213-0.101-0.142-0.151-0.343-0.151-0.604v-0.137c0.002-0.255 0.053-0.452 0.153-0.591 0.101-0.14 0.24-0.21 0.418-0.21 0.182 0 0.323 0.070 0.422 0.21z"></path>
</symbol>
<symbol id="icon-group2" viewBox="0 0 25 32">
<path d="M10.531 2.073h-0.084c-0.129-0.008-0.258-0.011-0.388-0.014v0h-0.28c-0.244 0-0.494 0.006-0.741 0.019-0.019-0.001-0.037-0.001-0.056 0-2.243 0.127-4.44 0.688-6.471 1.651l-0.266 0.128v13.625l0.623-0.211c0.546-0.188 1.129-0.357 1.731-0.513 1.629-0.418 3.301-0.64 4.982-0.662v1.79c-0.223 0.002-0.439 0.008-0.655 0.019h-0.051c-1.294 0.071-2.577 0.268-3.833 0.588-1.59 0.398-3.124 0.996-4.566 1.779v-17.475c1.497-0.873 3.11-1.529 4.79-1.948 1.475-0.381 2.992-0.576 4.515-0.582h0.263c0.314 0.008 0.621 0.022 0.909 0.044 0.759 0.053 1.511 0.173 2.249 0.358v1.762c-0.717-0.167-1.445-0.277-2.179-0.329-0.015-0.001-0.030-0.003-0.045-0.004-0.152-0.013-0.304-0.026-0.446-0.026zM13.633 3.875c0.391 0.030 0.796 0.044 1.205 0.044 1.601-0.006 3.195-0.21 4.747-0.609 1.589-0.4 3.123-0.998 4.564-1.781v17.163c-1.498 0.873-3.111 1.529-4.792 1.948-1.475 0.379-2.992 0.574-4.515 0.581-1.154 0.009-2.304-0.126-3.425-0.404v-17.275c0.265 0.061 0.537 0.117 0.814 0.164 0.455 0.077 0.934 0.133 1.401 0.167zM22.367 4.008l-0.623 0.21c-0.573 0.192-1.15 0.365-1.731 0.518-1.691 0.434-3.428 0.657-5.173 0.663-0.406 0-0.78-0.011-1.141-0.034l-0.497-0.033v14.017l0.427 0.038c0.395 0.034 0.803 0.052 1.214 0.052 1.374-0.006 2.743-0.183 4.074-0.527 1.096-0.275 2.162-0.658 3.184-1.144l0.266-0.128v-13.63z"></path>
<path d="M1.684 26.244c-0.090-0.093-0.197-0.166-0.317-0.214s-0.247-0.071-0.376-0.066c-0.137-0.002-0.273 0.024-0.4 0.075-0.117 0.046-0.222 0.116-0.311 0.205s-0.156 0.196-0.201 0.313c-0.049 0.123-0.073 0.254-0.072 0.387v2.335c-0.006 0.165 0.026 0.328 0.092 0.479 0.055 0.12 0.135 0.226 0.233 0.313 0.093 0.079 0.203 0.135 0.321 0.166 0.114 0.032 0.231 0.048 0.349 0.049 0.13 0.001 0.259-0.027 0.377-0.081 0.117-0.051 0.222-0.124 0.311-0.216 0.087-0.091 0.156-0.197 0.204-0.313 0.050-0.118 0.075-0.244 0.075-0.372v-0.261h-0.61v0.208c0.002 0.071-0.010 0.142-0.036 0.208-0.020 0.050-0.050 0.095-0.089 0.131-0.038 0.031-0.081 0.053-0.128 0.067-0.041 0.014-0.084 0.021-0.128 0.022-0.054 0.006-0.11-0.002-0.16-0.024s-0.094-0.057-0.126-0.101c-0.058-0.094-0.086-0.203-0.081-0.313v-2.177c-0.004-0.121 0.022-0.241 0.075-0.349 0.032-0.049 0.077-0.089 0.129-0.114s0.112-0.034 0.17-0.027c0.053-0.002 0.105 0.009 0.152 0.032s0.089 0.057 0.12 0.099c0.068 0.090 0.104 0.2 0.101 0.313v0.202h0.604v-0.238c0.001-0.14-0.024-0.278-0.075-0.408-0.045-0.122-0.114-0.234-0.204-0.329z"></path>
<path d="M5.31 26.218c-0.195-0.164-0.44-0.255-0.694-0.257-0.124 0-0.248 0.023-0.364 0.066-0.119 0.042-0.228 0.107-0.322 0.191-0.101 0.091-0.182 0.202-0.237 0.327-0.061 0.143-0.092 0.297-0.089 0.452v2.239c-0.004 0.158 0.026 0.314 0.089 0.459 0.055 0.12 0.136 0.227 0.237 0.313 0.093 0.087 0.203 0.154 0.322 0.197 0.117 0.043 0.24 0.065 0.364 0.066s0.248-0.023 0.364-0.066c0.121-0.044 0.233-0.111 0.33-0.197 0.097-0.087 0.176-0.194 0.23-0.313 0.063-0.145 0.093-0.301 0.089-0.459v-2.239c0.003-0.155-0.027-0.31-0.089-0.452-0.054-0.123-0.133-0.235-0.23-0.327zM5.025 29.236c0.005 0.060-0.003 0.12-0.024 0.176s-0.054 0.107-0.097 0.148c-0.081 0.068-0.182 0.105-0.287 0.105s-0.207-0.037-0.287-0.105c-0.043-0.041-0.076-0.092-0.097-0.148s-0.029-0.116-0.024-0.176v-2.239c-0.005-0.060 0.003-0.12 0.024-0.176s0.054-0.107 0.097-0.148c0.081-0.068 0.182-0.105 0.287-0.105s0.207 0.037 0.287 0.105c0.043 0.041 0.076 0.092 0.097 0.148s0.029 0.116 0.024 0.176v2.239z"></path>
<path d="M10.072 30.236v-4.239h-0.587l-0.771 2.244h-0.011l-0.777-2.244h-0.581v4.239h0.606v-2.579h0.011l0.593 1.823h0.302l0.598-1.823h0.011v2.579h0.606z"></path>
<path d="M13.513 26.294c-0.093-0.105-0.211-0.184-0.343-0.232-0.142-0.046-0.29-0.068-0.439-0.066h-0.9v4.239h0.604v-1.656h0.311c0.188 0.009 0.376-0.031 0.545-0.116 0.137-0.076 0.252-0.188 0.332-0.324 0.070-0.113 0.117-0.238 0.139-0.369 0.024-0.16 0.035-0.321 0.033-0.482 0.006-0.204-0.014-0.407-0.059-0.606-0.040-0.147-0.117-0.281-0.223-0.39zM13.201 27.587c-0.003 0.077-0.022 0.152-0.056 0.221-0.035 0.065-0.089 0.117-0.156 0.149-0.089 0.040-0.187 0.058-0.285 0.053h-0.275v-1.441h0.311c0.094-0.005 0.187 0.014 0.272 0.053 0.062 0.036 0.112 0.091 0.142 0.156 0.033 0.075 0.051 0.155 0.053 0.236 0 0.089 0 0.183 0 0.282s0.006 0.2 0 0.291h-0.006z"></path>
<path d="M16.374 25.997h-0.495l-0.934 4.239h0.604l0.177-0.911h0.823l0.177 0.911h0.604l-0.957-4.239zM15.817 28.748l0.297-1.537h0.011l0.296 1.537h-0.604z"></path>
<path d="M20.277 28.551h-0.011l-0.912-2.554h-0.581v4.239h0.604v-2.549h0.012l0.923 2.549h0.568v-4.239h-0.604v2.554z"></path>
<path d="M23.968 25.997l-0.486 1.685h-0.012l-0.486-1.685h-0.64l0.83 2.447v1.792h0.604v-1.792l0.83-2.447h-0.64z"></path>
<path d="M0 31.433h0.291v0.817h0.198v-0.817h0.29v-0.167h-0.778v0.167z"></path>
<path d="M2.447 31.266l-0.381 0.984h0.21l0.081-0.224h0.392l0.084 0.224h0.215l-0.391-0.984h-0.21zM2.416 31.861l0.134-0.365 0.134 0.365h-0.268z"></path>
<path d="M4.866 31.887h0.227v0.127c-0.066 0.053-0.149 0.082-0.234 0.083-0.040 0.002-0.079-0.005-0.116-0.021s-0.068-0.041-0.093-0.072c-0.052-0.075-0.078-0.165-0.073-0.257 0-0.219 0.095-0.329 0.283-0.329 0.050-0.005 0.099 0.008 0.14 0.037s0.070 0.071 0.082 0.12l0.195-0.038c-0.042-0.192-0.181-0.289-0.417-0.289-0.127-0.003-0.25 0.042-0.344 0.127-0.050 0.049-0.088 0.108-0.112 0.174s-0.034 0.135-0.029 0.205c-0.006 0.135 0.039 0.267 0.126 0.369 0.048 0.050 0.107 0.088 0.171 0.113s0.134 0.035 0.203 0.031c0.154 0.004 0.304-0.052 0.417-0.157v-0.388h-0.427v0.166z"></path>
<path d="M7.337 31.266h-0.199v0.984h0.69v-0.167h-0.49v-0.817z"></path>
<path d="M9.426 31.266h-0.199v0.984h0.199v-0.984z"></path>
<path d="M11.469 31.923l-0.403-0.657h-0.193v0.984h0.185v-0.643l0.395 0.643h0.198v-0.984h-0.182v0.657z"></path>
<path d="M13.315 31.817h0.49v-0.167h-0.49v-0.216h0.528v-0.167h-0.727v0.984h0.747v-0.167h-0.548v-0.266z"></path>
<path d="M17.792 31.654h-0.388v-0.388h-0.198v0.984h0.198v-0.43h0.388v0.43h0.198v-0.984h-0.198v0.388z"></path>
<path d="M19.649 31.817h0.492v-0.167h-0.492v-0.216h0.529v-0.167h-0.727v0.984h0.746v-0.167h-0.548v-0.266z"></path>
<path d="M22.168 31.817c0.171-0.027 0.258-0.117 0.258-0.274 0.005-0.042-0.001-0.084-0.018-0.123s-0.044-0.072-0.078-0.096c-0.089-0.045-0.189-0.065-0.288-0.058h-0.417v0.984h0.198v-0.412h0.039c0.042-0.003 0.084 0.005 0.123 0.022 0.029 0.018 0.053 0.043 0.070 0.072l0.215 0.313h0.237l-0.12-0.193c-0.053-0.095-0.128-0.176-0.218-0.236zM21.969 31.681h-0.146v-0.247h0.156c0.068-0.005 0.136 0.002 0.201 0.023 0.014 0.013 0.026 0.029 0.033 0.046s0.011 0.037 0.010 0.056c-0.001 0.019-0.006 0.038-0.015 0.055s-0.022 0.032-0.037 0.043c-0.065 0.020-0.133 0.028-0.201 0.023z"></path>
<path d="M24.067 31.817h0.49v-0.167h-0.49v-0.216h0.529v-0.167h-0.729v0.984h0.747v-0.167h-0.548v-0.266z"></path>
</symbol>
<symbol id="icon-group3" viewBox="0 0 34 32">
<path d="M5.643 30.885c0.012 0 0.024 0.003 0.035 0.007s0.021 0.011 0.029 0.018l0.166 0.159c-0.129 0.129-0.288 0.231-0.467 0.302-0.21 0.076-0.435 0.113-0.663 0.108-0.213 0.004-0.426-0.031-0.623-0.101-0.178-0.065-0.338-0.162-0.469-0.285-0.134-0.128-0.237-0.278-0.303-0.44-0.073-0.182-0.108-0.373-0.106-0.565-0.003-0.193 0.036-0.386 0.114-0.567 0.073-0.164 0.182-0.314 0.322-0.44 0.142-0.124 0.312-0.222 0.499-0.287 0.205-0.069 0.422-0.103 0.642-0.101 0.204-0.004 0.407 0.027 0.596 0.092 0.165 0.062 0.316 0.148 0.447 0.254l-0.139 0.17c-0.010 0.012-0.022 0.022-0.035 0.031-0.016 0.010-0.036 0.014-0.056 0.013-0.022-0.001-0.042-0.008-0.060-0.018l-0.075-0.045-0.104-0.058c-0.045-0.021-0.091-0.040-0.139-0.056-0.062-0.019-0.125-0.034-0.189-0.045-0.082-0.013-0.164-0.019-0.247-0.018-0.158-0.002-0.315 0.024-0.461 0.076-0.136 0.048-0.26 0.121-0.361 0.213-0.104 0.098-0.183 0.214-0.235 0.339-0.058 0.144-0.087 0.295-0.085 0.448-0.002 0.155 0.026 0.309 0.085 0.455 0.051 0.125 0.129 0.239 0.231 0.338 0.095 0.092 0.213 0.163 0.345 0.209 0.136 0.049 0.281 0.073 0.428 0.072 0.085 0.001 0.17-0.004 0.253-0.014 0.137-0.015 0.268-0.056 0.384-0.121 0.058-0.033 0.113-0.071 0.164-0.112 0.021-0.018 0.049-0.028 0.079-0.029z"></path>
<path d="M10.441 30.087c0.003 0.192-0.035 0.382-0.112 0.561-0.068 0.163-0.174 0.311-0.313 0.436s-0.306 0.222-0.491 0.286c-0.407 0.135-0.856 0.135-1.263 0-0.184-0.065-0.35-0.163-0.488-0.287-0.138-0.127-0.246-0.276-0.316-0.44-0.15-0.364-0.15-0.761 0-1.125 0.071-0.164 0.178-0.314 0.316-0.442 0.139-0.12 0.305-0.214 0.488-0.276 0.406-0.137 0.857-0.137 1.263 0 0.185 0.065 0.351 0.163 0.49 0.287 0.137 0.125 0.243 0.273 0.314 0.435 0.077 0.181 0.115 0.372 0.112 0.565zM10.005 30.087c0.003-0.153-0.023-0.306-0.079-0.451-0.047-0.125-0.122-0.24-0.222-0.338-0.097-0.093-0.217-0.166-0.351-0.213-0.296-0.099-0.623-0.099-0.918 0-0.134 0.047-0.254 0.12-0.351 0.213-0.101 0.097-0.178 0.212-0.224 0.338-0.106 0.294-0.106 0.609 0 0.902 0.047 0.125 0.123 0.24 0.224 0.338 0.098 0.092 0.217 0.164 0.351 0.211 0.296 0.096 0.622 0.096 0.918 0 0.134-0.047 0.254-0.119 0.351-0.211 0.1-0.098 0.175-0.213 0.222-0.338 0.056-0.145 0.082-0.298 0.079-0.451z"></path>
<path d="M13.715 30.56l0.044 0.101c0.017-0.036 0.031-0.069 0.048-0.101 0.016-0.034 0.034-0.067 0.054-0.099l1.062-1.677c0.021-0.029 0.039-0.047 0.060-0.052 0.028-0.007 0.058-0.011 0.087-0.009h0.314v2.727h-0.372v-2.005c0-0.025 0-0.054 0-0.085-0.002-0.031-0.002-0.063 0-0.094l-1.068 1.7c-0.014 0.025-0.035 0.047-0.063 0.062s-0.059 0.023-0.091 0.023h-0.060c-0.032 0-0.064-0.007-0.091-0.022s-0.049-0.037-0.062-0.062l-1.099-1.711c0 0.032 0 0.065 0 0.097s0 0.061 0 0.087v2.005h-0.359v-2.722h0.314c0.030-0.002 0.059 0.002 0.087 0.009 0.026 0.011 0.046 0.030 0.058 0.052l1.084 1.678c0.021 0.031 0.039 0.064 0.054 0.097z"></path>
<path d="M17.71 30.424v1.021h-0.415v-2.723h0.926c0.175-0.003 0.349 0.017 0.517 0.060 0.134 0.033 0.259 0.091 0.366 0.17 0.092 0.074 0.163 0.165 0.208 0.267 0.049 0.111 0.073 0.229 0.071 0.348 0.002 0.119-0.024 0.238-0.077 0.348-0.050 0.104-0.127 0.198-0.224 0.273-0.107 0.082-0.232 0.143-0.368 0.18-0.162 0.045-0.331 0.066-0.501 0.063l-0.503-0.007zM17.71 30.132h0.503c0.109 0.001 0.218-0.013 0.322-0.042 0.086-0.025 0.165-0.065 0.233-0.117 0.062-0.050 0.111-0.112 0.141-0.18 0.034-0.073 0.051-0.151 0.050-0.229 0.005-0.076-0.009-0.151-0.042-0.222s-0.082-0.134-0.145-0.186c-0.159-0.108-0.358-0.16-0.559-0.146h-0.503v1.123z"></path>
<path d="M23.294 31.449h-0.328c-0.033 0.001-0.065-0.008-0.091-0.025-0.024-0.017-0.042-0.039-0.054-0.063l-0.282-0.659h-1.419l-0.293 0.659c-0.011 0.024-0.029 0.045-0.052 0.061-0.026 0.018-0.060 0.028-0.093 0.027h-0.328l1.246-2.727h0.432l1.263 2.727zM21.237 30.437h1.172l-0.494-1.11c-0.038-0.083-0.069-0.169-0.093-0.256l-0.048 0.143c-0.014 0.043-0.031 0.083-0.046 0.116l-0.49 1.108z"></path>
<path d="M25.089 28.735c0.025 0.012 0.046 0.029 0.062 0.049l1.818 2.056c0-0.032 0-0.065 0-0.096s0-0.061 0-0.090v-1.931h0.372v2.727h-0.208c-0.030 0.001-0.059-0.005-0.085-0.016-0.026-0.013-0.048-0.030-0.067-0.050l-1.816-2.054c0.002 0.031 0.002 0.063 0 0.094 0 0.031 0 0.058 0 0.083v1.944h-0.372v-2.727h0.22c0.026-0.001 0.051 0.004 0.075 0.013z"></path>
<path d="M30.402 30.365v1.083h-0.415v-1.083l-1.149-1.642h0.372c0.032-0.002 0.064 0.007 0.089 0.023 0.023 0.017 0.042 0.038 0.056 0.061l0.719 1.059c0.029 0.045 0.054 0.087 0.075 0.126s0.037 0.078 0.052 0.116l0.054-0.117c0.020-0.043 0.044-0.085 0.071-0.125l0.708-1.067c0.015-0.021 0.033-0.041 0.054-0.058 0.025-0.019 0.057-0.028 0.089-0.027h0.376l-1.151 1.65z"></path>
<path d="M13.51 24.146c0.181 0.020 0.364 0.036 0.548 0.050 2.803-1.089 5.174-2.873 6.817-5.126s2.485-4.878 2.421-7.546l-3.089-2.684c0.628 2.84 0.334 5.775-0.849 8.479s-3.208 5.067-5.849 6.827z"></path>
<path d="M12.407 24.021l0.083 0.014c2.822-1.754 4.974-4.203 6.176-7.030s1.402-5.904 0.571-8.83l-4.4-3.823c1.78 3.142 2.496 6.659 2.066 10.141s-1.989 6.786-4.496 9.528z"></path>
<path d="M27.328 14.675c-0.747 2.931-2.563 5.574-5.177 7.537-0.763 0.576-1.587 1.090-2.46 1.534 2.128-0.544 4.085-1.504 5.718-2.809s2.9-2.917 3.703-4.714l-1.784-1.549z"></path>
<path d="M26.628 14.244l-2.541-2.207c-0.049 2.517-0.872 4.976-2.385 7.123s-3.66 3.902-6.217 5.084h0.012c0.57-0 1.139-0.030 1.705-0.088 2.39-0.848 4.502-2.196 6.147-3.926s2.771-3.785 3.278-5.985z"></path>
<path d="M12.774 2.74l-3.031-2.637c-2.709 0.91-5.040 2.509-6.686 4.588s-2.531 4.542-2.54 7.066v0c0.010 2.789 1.090 5.495 3.070 7.69s4.745 3.754 7.859 4.43c2.78-2.942 4.407-6.578 4.646-10.38s-0.924-7.569-3.319-10.757z"></path>
<path d="M33.63 13.838c-0.011-3.309-1.529-6.479-4.221-8.818s-6.342-3.658-10.15-3.668c-1.76-0.002-3.504 0.281-5.146 0.832l18.557 16.123c0.635-1.425 0.961-2.941 0.96-4.469z"></path>
</symbol>
<symbol id="icon-group4" viewBox="0 0 66 32">
<path d="M10.26 9.785h-0.002c-1.872 0-3.389 1.348-3.389 3.012v0.002c0 1.663 1.517 3.012 3.389 3.012h0.002c1.872 0 3.389-1.348 3.389-3.012v-0.002c0-1.663-1.517-3.012-3.389-3.012z"></path>
<path d="M35.274 8.823c-0.005-2.31-1.040-4.525-2.878-6.158s-4.329-2.554-6.929-2.559v0c-2.6 0.004-5.093 0.924-6.932 2.558s-2.874 3.849-2.88 6.16v12.74c0 0 19.616-1.942 19.619-12.738v-0.002z"></path>
<path d="M0 25.744c0.005 1.607 0.725 3.148 2.004 4.285s3.012 1.778 4.821 1.782c1.808-0.005 3.541-0.645 4.82-1.782s2-2.676 2.005-4.284v-8.864c0 0-13.649 1.352-13.649 8.863zM6.825 27.332c-0.353 0-0.699-0.093-0.993-0.268s-0.523-0.423-0.658-0.713c-0.135-0.29-0.171-0.61-0.102-0.918s0.239-0.591 0.489-0.813 0.568-0.373 0.915-0.435c0.347-0.061 0.706-0.030 1.033 0.090s0.606 0.324 0.802 0.585c0.196 0.261 0.301 0.568 0.301 0.882 0.001 0.209-0.045 0.416-0.134 0.61s-0.221 0.369-0.387 0.517c-0.166 0.148-0.363 0.266-0.581 0.346s-0.45 0.121-0.685 0.121v-0.006z"></path>
<path d="M20.619 26.457h-1.317v1.36h-0.686v-3.329h2.168v0.556h-1.482v0.86h1.317v0.553zM23.916 26.229c0 0.328-0.058 0.615-0.174 0.862s-0.282 0.437-0.498 0.572c-0.215 0.134-0.462 0.201-0.741 0.201-0.276 0-0.522-0.066-0.739-0.199s-0.384-0.322-0.503-0.567c-0.119-0.247-0.179-0.53-0.181-0.851v-0.165c0-0.328 0.059-0.616 0.176-0.864 0.119-0.25 0.286-0.441 0.501-0.574 0.216-0.134 0.463-0.201 0.741-0.201s0.524 0.067 0.739 0.201c0.216 0.133 0.383 0.324 0.501 0.574 0.119 0.248 0.178 0.536 0.178 0.862v0.149zM23.221 26.078c0-0.349-0.062-0.614-0.187-0.796s-0.303-0.272-0.535-0.272c-0.23 0-0.408 0.090-0.533 0.27-0.125 0.178-0.188 0.441-0.19 0.787v0.162c0 0.34 0.063 0.604 0.187 0.791s0.305 0.281 0.54 0.281c0.23 0 0.407-0.090 0.53-0.27 0.123-0.181 0.186-0.445 0.187-0.791v-0.162zM26.141 26.944c0-0.13-0.046-0.229-0.137-0.297-0.091-0.070-0.256-0.143-0.494-0.219-0.238-0.078-0.426-0.154-0.565-0.229-0.378-0.204-0.567-0.479-0.567-0.825 0-0.18 0.050-0.34 0.151-0.48 0.102-0.142 0.248-0.252 0.437-0.332 0.191-0.079 0.404-0.119 0.64-0.119 0.238 0 0.45 0.043 0.636 0.13 0.186 0.085 0.33 0.207 0.432 0.364 0.104 0.157 0.155 0.335 0.155 0.535h-0.686c0-0.152-0.048-0.271-0.144-0.354-0.096-0.085-0.231-0.128-0.405-0.128-0.168 0-0.298 0.036-0.391 0.107-0.093 0.070-0.139 0.163-0.139 0.279 0 0.108 0.054 0.199 0.162 0.272 0.11 0.073 0.271 0.142 0.482 0.206 0.39 0.117 0.675 0.263 0.853 0.437s0.268 0.39 0.268 0.649c0 0.288-0.109 0.514-0.327 0.679-0.218 0.163-0.511 0.245-0.88 0.245-0.256 0-0.489-0.047-0.7-0.139-0.21-0.095-0.371-0.223-0.482-0.386-0.11-0.163-0.165-0.352-0.165-0.567h0.688c0 0.367 0.219 0.551 0.659 0.551 0.163 0 0.29-0.033 0.382-0.098 0.091-0.067 0.137-0.16 0.137-0.279zM29.802 25.044h-1.020v2.774h-0.686v-2.774h-1.006v-0.556h2.712v0.556zM32.198 26.375h-1.317v0.892h1.546v0.551h-2.232v-3.329h2.227v0.556h-1.541v0.793h1.317v0.537zM34.062 26.599h-0.547v1.219h-0.686v-3.329h1.237c0.393 0 0.697 0.088 0.91 0.263s0.32 0.423 0.32 0.743c0 0.227-0.049 0.417-0.149 0.569-0.098 0.151-0.246 0.271-0.446 0.361l0.72 1.361v0.032h-0.736l-0.624-1.219zM33.515 26.044h0.553c0.172 0 0.306-0.043 0.4-0.13 0.095-0.088 0.142-0.21 0.142-0.364 0-0.157-0.045-0.28-0.135-0.37-0.088-0.090-0.225-0.135-0.409-0.135h-0.551v0.999zM37.672 26.645v1.173h-0.686v-3.329h1.299c0.25 0 0.47 0.046 0.659 0.137 0.191 0.091 0.337 0.222 0.439 0.391 0.102 0.168 0.153 0.359 0.153 0.574 0 0.326-0.112 0.584-0.336 0.773-0.223 0.188-0.531 0.281-0.926 0.281h-0.601zM37.672 26.089h0.613c0.181 0 0.319-0.043 0.414-0.128 0.096-0.085 0.144-0.207 0.144-0.366 0-0.163-0.048-0.295-0.144-0.396s-0.229-0.152-0.398-0.155h-0.629v1.045zM42.012 26.375h-1.317v0.892h1.546v0.551h-2.232v-3.329h2.227v0.556h-1.541v0.793h1.317v0.537zM45.195 25.044h-1.020v2.774h-0.686v-2.774h-1.006v-0.556h2.712v0.556zM47.591 26.375h-1.317v0.892h1.546v0.551h-2.232v-3.329h2.227v0.556h-1.541v0.793h1.317v0.537zM49.455 26.599h-0.547v1.219h-0.686v-3.329h1.237c0.393 0 0.697 0.088 0.91 0.263s0.32 0.423 0.32 0.743c0 0.227-0.050 0.417-0.149 0.569-0.098 0.151-0.246 0.271-0.446 0.361l0.72 1.361v0.032h-0.736l-0.624-1.219zM48.908 26.044h0.553c0.172 0 0.306-0.043 0.4-0.13 0.095-0.088 0.142-0.21 0.142-0.364 0-0.157-0.045-0.28-0.135-0.37-0.088-0.090-0.225-0.135-0.409-0.135h-0.551v0.999zM52.94 26.944c0-0.13-0.046-0.229-0.137-0.297-0.091-0.070-0.256-0.143-0.494-0.219-0.238-0.078-0.426-0.154-0.565-0.229-0.378-0.204-0.567-0.479-0.567-0.825 0-0.18 0.050-0.34 0.151-0.48 0.102-0.142 0.248-0.252 0.437-0.332 0.191-0.079 0.404-0.119 0.64-0.119 0.238 0 0.45 0.043 0.636 0.13 0.186 0.085 0.33 0.207 0.432 0.364 0.104 0.157 0.155 0.335 0.155 0.535h-0.686c0-0.152-0.048-0.271-0.144-0.354-0.096-0.085-0.231-0.128-0.405-0.128-0.168 0-0.298 0.036-0.391 0.107-0.093 0.070-0.139 0.163-0.139 0.279 0 0.108 0.054 0.199 0.162 0.272 0.11 0.073 0.271 0.142 0.483 0.206 0.39 0.117 0.675 0.263 0.853 0.437s0.267 0.39 0.267 0.649c0 0.288-0.109 0.514-0.327 0.679-0.218 0.163-0.511 0.245-0.88 0.245-0.256 0-0.489-0.047-0.7-0.139-0.21-0.095-0.371-0.223-0.483-0.386-0.11-0.163-0.165-0.352-0.165-0.567h0.688c0 0.367 0.22 0.551 0.659 0.551 0.163 0 0.29-0.033 0.382-0.098 0.091-0.067 0.137-0.16 0.137-0.279z"></path>
</symbol>
<symbol id="icon-group5" viewBox="0 0 44 32">
<path d="M3.309 26.553c0.17 0.192 0.26 0.433 0.255 0.68 0.009 0.161-0.022 0.322-0.091 0.47s-0.172 0.281-0.304 0.388c-0.329 0.228-0.737 0.339-1.149 0.313h-2.020v-4.307h1.979c0.391-0.024 0.778 0.077 1.096 0.286 0.128 0.098 0.229 0.222 0.296 0.362s0.097 0.292 0.088 0.444c0.012 0.238-0.070 0.471-0.23 0.659-0.154 0.171-0.366 0.29-0.602 0.337 0.268 0.045 0.51 0.175 0.683 0.368zM0.94 25.903h0.846c0.192 0.013 0.383-0.038 0.538-0.143 0.063-0.053 0.113-0.118 0.144-0.191s0.044-0.152 0.037-0.23c0.006-0.078-0.007-0.156-0.038-0.229s-0.079-0.138-0.141-0.192c-0.159-0.108-0.356-0.16-0.554-0.145h-0.832v1.13zM2.406 27.555c0.068-0.054 0.121-0.122 0.156-0.197s0.050-0.158 0.044-0.24c0.005-0.083-0.011-0.166-0.046-0.243s-0.090-0.145-0.159-0.199c-0.165-0.112-0.369-0.167-0.575-0.156h-0.887v1.185h0.899c0.202 0.011 0.402-0.042 0.568-0.149z"></path>
<path d="M7.354 28.405l-1.101-1.683h-0.414v1.683h-0.947v-4.307h1.792c0.452-0.029 0.899 0.102 1.248 0.366 0.251 0.234 0.402 0.542 0.426 0.869s-0.079 0.651-0.293 0.914c-0.221 0.232-0.523 0.387-0.855 0.438l1.172 1.721h-1.030zM5.839 26.134h0.774c0.538 0 0.807-0.217 0.807-0.652 0.005-0.089-0.009-0.178-0.043-0.261s-0.087-0.159-0.154-0.223c-0.17-0.129-0.389-0.192-0.609-0.175h-0.784l0.009 1.311z"></path>
<path d="M12.529 27.538h-1.887l-0.333 0.867h-0.993l1.733-4.259h1.073l1.726 4.259h-0.993l-0.326-0.867zM12.276 26.885l-0.689-1.818-0.689 1.818h1.379z"></path>
<path d="M19.007 28.405h-0.94l-2.107-2.929v2.929h-0.938v-4.307h0.938l2.107 2.946v-2.946h0.94v4.307z"></path>
<path d="M24.37 27.374c-0.194 0.325-0.49 0.59-0.85 0.76-0.409 0.189-0.863 0.282-1.321 0.271h-1.673v-4.307h1.673c0.457-0.011 0.911 0.080 1.321 0.265 0.36 0.166 0.656 0.428 0.85 0.751 0.193 0.35 0.294 0.737 0.294 1.13s-0.101 0.78-0.294 1.13zM23.295 27.271c0.268-0.286 0.416-0.651 0.416-1.028s-0.147-0.742-0.416-1.028c-0.324-0.259-0.747-0.391-1.177-0.366h-0.653v2.788h0.653c0.43 0.025 0.852-0.107 1.177-0.366z"></path>
<path d="M13.117 0.14c0 0 12.131 4.193 11.874 10.262v10.264c0 0-12.122-4.196-11.869-10.264l-0.005-10.262z"></path>
<path d="M35.798 18.263c2.291-1.444 4.941-2.338 7.708-2.601v-3.213c-3.187 1.125-5.891 3.164-7.708 5.814z"></path>
<path d="M34.422 19.231c1.875-3.457 5.126-6.125 9.084-7.455v-9.258c0 0-17.277 5.974-16.911 14.615v14.613c0 0 0.77-0.267 1.981-0.768 0-0.467 0-0.938 0.055-1.412 0.358-4.012 2.441-7.729 5.791-10.335z"></path>
<path d="M32.779 24.659c0.091-1.013 0.293-2.016 0.604-2.992-2.086 2.25-3.35 5.043-3.612 7.985-0.025 0.278-0.039 0.555-0.046 0.842 0.981-0.431 2.123-0.97 3.323-1.603-0.306-1.392-0.397-2.816-0.269-4.231z"></path>
<path d="M33.466 24.712c-0.115 1.28-0.043 2.569 0.214 3.832 4.72-2.586 10.024-6.582 9.819-11.411v-0.421c-3.372 0.346-6.528 1.695-8.981 3.842-0.574 1.33-0.929 2.732-1.052 4.158z"></path>
</symbol>
<symbol id="icon-group6" viewBox="0 0 67 32">
<path d="M33.724 14.822c-0.315-0.419-0.466-0.915-0.43-1.414v-2.050c0-0.629 0.142-1.106 0.428-1.433s0.775-0.489 1.469-0.488c0.652 0 1.115 0.139 1.389 0.417 0.299 0.355 0.444 0.789 0.411 1.226v0.482h-1.167v-0.488c0.004-0.16-0.007-0.32-0.034-0.478-0.017-0.108-0.076-0.208-0.167-0.284-0.12-0.081-0.271-0.121-0.423-0.111-0.16-0.010-0.318 0.031-0.444 0.117-0.102 0.084-0.169 0.193-0.193 0.313-0.033 0.167-0.049 0.337-0.046 0.507v2.488c-0.018 0.24 0.033 0.48 0.15 0.699 0.058 0.074 0.139 0.132 0.233 0.169s0.198 0.050 0.301 0.039c0.149 0.011 0.298-0.030 0.413-0.113 0.095-0.081 0.156-0.188 0.174-0.302 0.027-0.165 0.039-0.332 0.036-0.498v-0.505h1.167v0.461c0.033 0.456-0.109 0.909-0.403 1.289-0.268 0.305-0.725 0.457-1.396 0.457s-1.179-0.163-1.466-0.501z"></path>
<path d="M38.583 14.843c-0.295-0.319-0.442-0.784-0.442-1.4v-2.157c0-0.609 0.147-1.070 0.442-1.383s0.788-0.469 1.478-0.467c0.686 0 1.177 0.156 1.471 0.467 0.295 0.313 0.444 0.774 0.444 1.383v2.157c0 0.609-0.15 1.076-0.449 1.397s-0.788 0.482-1.466 0.482c-0.679 0-1.181-0.163-1.478-0.48zM40.605 14.325c0.106-0.2 0.154-0.419 0.14-0.638v-2.641c0.014-0.215-0.034-0.43-0.138-0.626-0.059-0.075-0.142-0.135-0.238-0.172s-0.203-0.050-0.308-0.037c-0.105-0.013-0.212 0-0.308 0.037s-0.18 0.096-0.24 0.172c-0.106 0.195-0.154 0.41-0.14 0.626v2.653c-0.015 0.219 0.033 0.439 0.14 0.638 0.068 0.067 0.152 0.121 0.246 0.158s0.196 0.056 0.3 0.056c0.103 0 0.206-0.019 0.3-0.056s0.178-0.091 0.246-0.158v-0.012z"></path>
<path d="M43.38 9.499h1.256l0.945 3.979 0.966-3.979h1.222l0.123 5.743h-0.904l-0.097-3.992-0.932 3.992h-0.725l-0.966-4.006-0.089 4.006h-0.913l0.114-5.743z"></path>
<path d="M49.301 9.499h1.957c1.127 0 1.691 0.544 1.691 1.631 0 1.041-0.593 1.561-1.78 1.56h-0.667v2.553h-1.208l0.007-5.743zM50.973 11.954c0.119 0.013 0.24 0.004 0.355-0.028s0.22-0.084 0.309-0.154c0.139-0.194 0.2-0.422 0.174-0.649 0.006-0.175-0.013-0.35-0.058-0.521-0.017-0.057-0.047-0.111-0.089-0.158s-0.093-0.086-0.153-0.116c-0.168-0.069-0.353-0.101-0.539-0.092h-0.469v1.716h0.469z"></path>
<path d="M54.691 9.499h1.297l1.331 5.743h-1.126l-0.263-1.324h-1.157l-0.271 1.324h-1.143l1.331-5.743zM55.8 13.253l-0.452-2.411-0.452 2.411h0.903z"></path>
<path d="M58.395 9.499h0.846l1.619 3.276v-3.276h1.003v5.743h-0.804l-1.628-3.42v3.42h-1.036l0.002-5.743z"></path>
<path d="M64.209 13.053l-1.346-3.545h1.133l0.821 2.277 0.771-2.277h1.109l-1.329 3.545v2.19h-1.16v-2.19z"></path>
<path d="M35.589 17.754v0.3h-0.986v2.334h-0.413v-2.334h-0.99v-0.3h2.389z"></path>
<path d="M38.679 20.388h-0.319c-0.032 0.002-0.064-0.007-0.089-0.025-0.024-0.015-0.043-0.036-0.053-0.060l-0.285-0.626h-1.367l-0.285 0.626c-0.008 0.026-0.023 0.050-0.044 0.071-0.025 0.017-0.057 0.026-0.089 0.025h-0.319l1.208-2.634h0.42l1.222 2.624zM36.679 19.41h1.14l-0.483-1.072c-0.036-0.081-0.066-0.164-0.089-0.248-0.017 0.050-0.031 0.098-0.046 0.14l-0.044 0.11-0.478 1.070z"></path>
<path d="M40.762 20.13c0.076 0.003 0.151 0.003 0.227 0 0.065-0.006 0.13-0.016 0.193-0.031 0.059-0.012 0.117-0.029 0.174-0.048 0.053-0.019 0.106-0.042 0.162-0.065v-0.592h-0.483c-0.012 0.001-0.024-0.001-0.035-0.005s-0.021-0.009-0.030-0.016c-0.008-0.006-0.014-0.013-0.018-0.022s-0.006-0.017-0.006-0.026v-0.202h0.937v1.010c-0.077 0.047-0.157 0.089-0.242 0.125-0.086 0.037-0.176 0.067-0.268 0.090-0.099 0.025-0.2 0.043-0.302 0.054-0.117 0.011-0.235 0.017-0.353 0.017-0.208 0.002-0.415-0.032-0.609-0.098-0.181-0.063-0.345-0.156-0.483-0.275-0.134-0.12-0.24-0.262-0.312-0.417-0.076-0.175-0.114-0.36-0.111-0.546-0.003-0.188 0.034-0.374 0.109-0.551 0.069-0.156 0.176-0.298 0.312-0.417 0.138-0.119 0.302-0.212 0.483-0.273 0.207-0.067 0.426-0.1 0.647-0.098 0.112-0 0.225 0.008 0.336 0.023 0.098 0.014 0.195 0.036 0.288 0.067 0.084 0.027 0.165 0.062 0.242 0.104 0.074 0.041 0.144 0.087 0.21 0.138l-0.116 0.163c-0.009 0.015-0.023 0.027-0.039 0.036s-0.036 0.014-0.055 0.014c-0.027-0.001-0.053-0.008-0.075-0.021-0.036-0.017-0.075-0.038-0.118-0.063-0.051-0.028-0.106-0.052-0.162-0.071-0.072-0.025-0.146-0.044-0.222-0.058-0.101-0.016-0.204-0.024-0.307-0.023-0.159-0.002-0.318 0.023-0.466 0.073-0.134 0.047-0.256 0.118-0.355 0.209-0.1 0.095-0.177 0.206-0.225 0.327-0.108 0.285-0.108 0.593 0 0.878 0.053 0.124 0.135 0.237 0.242 0.332 0.099 0.090 0.219 0.162 0.353 0.209 0.154 0.046 0.316 0.063 0.478 0.052z"></path>
<path d="M44.612 20.088h1.319v0.3h-1.722v-2.634h0.413l-0.010 2.334z"></path>
<path d="M47.304 20.388h-0.413v-2.634h0.413v2.634z"></path>
<path d="M48.84 17.766c0.025 0.012 0.046 0.028 0.063 0.048l1.766 1.986c-0.002-0.031-0.002-0.063 0-0.094 0-0.029 0-0.058 0-0.085v-1.877h0.36v2.645h-0.208c-0.031 0.002-0.062-0.003-0.089-0.015-0.025-0.013-0.047-0.030-0.065-0.050l-1.764-1.983c0 0.031 0 0.060 0 0.090s0 0.056 0 0.081v1.877h-0.345v-2.634h0.215c0.023 0 0.046 0.004 0.068 0.012z"></path>
<path d="M54.070 17.754v0.29h-1.464v0.87h1.186v0.279h-1.186v0.899h1.464v0.29h-1.889v-2.628h1.889z"></path>
<path d="M10.782 1.486l18.343 4.497v15.757l-18.343-4.495v-15.759zM9.605 0.143v17.867l20.694 5.074v-17.865l-20.694-5.076z"></path>
<path d="M20.696 31.379l-20.696-5.078v-17.866l20.696 5.076v17.868z"></path>
<path d="M9.948 1.284l18.104 4.44-7.699 6.649-18.106-4.442 7.702-6.647zM9.605 0.143l-9.605 8.292 20.696 5.076 9.603-8.292-20.694-5.076z"></path>
<path d="M21.861 30.374l8.438-7.287-8.438-2.071v9.358z"></path>
</symbol>
<symbol id="icon-hero_img" viewBox="0 0 85 32">
<path d="M0 0h85.333v32h-85.333v-32z"></path>
</symbol>
<symbol id="icon-instagram" viewBox="0 0 32 32">
<path d="M31.969 9.408c-0.075-1.7-0.35-2.869-0.744-3.882-0.406-1.075-1.032-2.038-1.851-2.838-0.8-0.813-1.769-1.444-2.832-1.844-1.019-0.394-2.182-0.669-3.882-0.744-1.713-0.081-2.257-0.1-6.601-0.1s-4.888 0.019-6.595 0.094c-1.7 0.075-2.869 0.35-3.882 0.744-1.075 0.406-2.038 1.031-2.838 1.85-0.813 0.8-1.444 1.769-1.844 2.832-0.394 1.019-0.669 2.182-0.744 3.882-0.081 1.713-0.1 2.257-0.1 6.601s0.019 4.888 0.094 6.595c0.075 1.7 0.35 2.869 0.744 3.882 0.406 1.075 1.038 2.038 1.85 2.838 0.8 0.813 1.769 1.444 2.832 1.844 1.019 0.394 2.182 0.669 3.882 0.744 1.706 0.075 2.25 0.094 6.595 0.094s4.888-0.019 6.595-0.094c1.7-0.075 2.869-0.35 3.882-0.744 2.151-0.832 3.851-2.532 4.682-4.682 0.394-1.019 0.669-2.182 0.744-3.882 0.075-1.707 0.094-2.251 0.094-6.595s-0.006-4.888-0.081-6.595zM29.087 22.473c-0.069 1.563-0.331 2.407-0.55 2.969-0.538 1.394-1.644 2.5-3.038 3.038-0.563 0.219-1.413 0.481-2.969 0.55-1.688 0.075-2.194 0.094-6.464 0.094s-4.782-0.019-6.464-0.094c-1.563-0.069-2.407-0.331-2.969-0.55-0.694-0.256-1.325-0.663-1.838-1.194-0.531-0.519-0.938-1.144-1.194-1.838-0.219-0.563-0.481-1.413-0.55-2.969-0.075-1.688-0.094-2.194-0.094-6.464s0.019-4.782 0.094-6.464c0.069-1.563 0.331-2.407 0.55-2.969 0.256-0.694 0.663-1.325 1.2-1.838 0.519-0.531 1.144-0.938 1.838-1.194 0.563-0.219 1.413-0.481 2.969-0.55 1.688-0.075 2.194-0.094 6.464-0.094 4.276 0 4.782 0.019 6.464 0.094 1.563 0.069 2.407 0.331 2.969 0.55 0.694 0.256 1.325 0.662 1.838 1.194 0.531 0.519 0.938 1.144 1.194 1.838 0.219 0.563 0.481 1.413 0.55 2.969 0.075 1.688 0.094 2.194 0.094 6.464s-0.019 4.77-0.094 6.458z"></path>
<path d="M16.059 7.783c-4.538 0-8.22 3.682-8.22 8.22s3.682 8.22 8.22 8.22c4.539 0 8.22-3.682 8.22-8.22s-3.682-8.22-8.22-8.22zM16.059 21.335c-2.944 0-5.332-2.388-5.332-5.332s2.388-5.332 5.332-5.332c2.944 0 5.332 2.388 5.332 5.332s-2.388 5.332-5.332 5.332z"></path>
<path d="M26.524 7.458c0 1.060-0.859 1.919-1.919 1.919s-1.919-0.859-1.919-1.919c0-1.060 0.859-1.919 1.919-1.919s1.919 0.859 1.919 1.919z"></path>
</symbol>
<symbol id="icon-linkedin" viewBox="0 0 32 32">
<path d="M31.992 32v-0.001h0.008v-11.736c0-5.741-1.236-10.164-7.948-10.164-3.227 0-5.392 1.771-6.276 3.449h-0.093v-2.913h-6.364v21.364h6.627v-10.579c0-2.785 0.528-5.479 3.977-5.479 3.399 0 3.449 3.179 3.449 5.657v10.401h6.62z"></path>
<path d="M0.528 10.636h6.635v21.364h-6.635v-21.364z"></path>
<path d="M3.843 0c-2.121 0-3.843 1.721-3.843 3.843s1.721 3.879 3.843 3.879c2.121 0 3.843-1.757 3.843-3.879-0.001-2.121-1.723-3.843-3.843-3.843v0z"></path>
</symbol>
<symbol id="icon-smartphone" viewBox="0 0 20 32">
<path d="M17 0h-14c-1.654 0-3 1.346-3 3v26c0 1.654 1.346 3 3 3h14c1.654 0 3-1.346 3-3v-26c0-1.654-1.346-3-3-3zM3 2h14c0.552 0 1 0.448 1 1v21h-16v-21c0-0.552 0.448-1 1-1zM17 30h-14c-0.552 0-1-0.448-1-1v-3h16v3c0 0.552-0.448 1-1 1z"></path>
<path d="M4.707 27.478c0.391 0.365 0.391 0.956 0 1.321s-1.024 0.365-1.414 0c-0.391-0.365-0.391-0.956 0-1.321s1.024-0.365 1.414 0z"></path>
</symbol>
<symbol id="icon-twitter" viewBox="0 0 32 32">
<path d="M32 6.078c-1.19 0.522-2.458 0.868-3.78 1.036 1.36-0.812 2.398-2.088 2.886-3.626-1.268 0.756-2.668 1.29-4.16 1.588-1.204-1.282-2.92-2.076-4.792-2.076-3.632 0-6.556 2.948-6.556 6.562 0 0.52 0.044 1.020 0.152 1.496-5.454-0.266-10.28-2.88-13.522-6.862-0.566 0.982-0.898 2.106-0.898 3.316 0 2.272 1.17 4.286 2.914 5.452-1.054-0.020-2.088-0.326-2.964-0.808 0 0.020 0 0.046 0 0.072 0 3.188 2.274 5.836 5.256 6.446-0.534 0.146-1.116 0.216-1.72 0.216-0.42 0-0.844-0.024-1.242-0.112 0.85 2.598 3.262 4.508 6.13 4.57-2.232 1.746-5.066 2.798-8.134 2.798-0.538 0-1.054-0.024-1.57-0.090 2.906 1.874 6.35 2.944 10.064 2.944 12.072 0 18.672-10 18.672-18.668 0-0.29-0.010-0.57-0.024-0.848 1.302-0.924 2.396-2.078 3.288-3.406z"></path>
</symbol>
</defs>
</svg>
